<svg width="20" height="20" viewBox="0 0 20 20" fill="none">
  <path 
  d="M10 0C7.28333 0 6.94417 0.0116667 5.87667 0.06C2.24667 0.226667 0.226667 2.24167 0.06 5.87667C0.0116667 6.94417 0 7.28333 0 10C0 12.7167 0.0116667 13.0558 0.06 14.1233C0.226667 17.7533 2.24167 19.7733 5.87667 19.94C6.94417 19.9883 7.28333 20 10 20C12.7167 20 13.0558 19.9883 14.1233 19.94C17.7533 19.7733 19.7733 17.7583 19.94 14.1233C19.9883 13.0558 20 12.7167 20 10C20 7.28333 19.9883 6.94417 19.94 5.87667C19.7733 2.24667 17.7583 0.226667 14.1233 0.06C13.0558 0.0116667 12.7167 0 10 0ZM10 1.8C12.67 1.8 12.9867 1.81 14.0417 1.85833C16.7517 1.98333 18.0167 3.27 18.1417 5.95833C18.19 7.01333 18.2 7.33 18.2 10C18.2 12.67 18.19 12.9867 18.1417 14.0417C18.0167 16.7517 16.7283 18.0167 14.0417 18.1417C12.9867 18.19 12.67 18.2 10 18.2C7.33 18.2 7.01333 18.19 5.95833 18.1417C3.24833 18.0167 1.98333 16.7283 1.85833 14.0417C1.81 12.9867 1.8 12.67 1.8 10C1.8 7.33 1.81 7.01333 1.85833 5.95833C1.98333 3.24833 3.27167 1.98333 5.95833 1.85833C7.01333 1.81 7.33 1.8 10 1.8ZM10 4.865C7.16417 4.865 4.865 7.16417 4.865 10C4.865 12.8358 7.16417 15.135 10 15.135C12.8358 15.135 15.135 12.8358 15.135 10C15.135 7.16417 12.8358 4.865 10 4.865ZM10 13.3333C8.15917 13.3333 6.66667 11.8408 6.66667 10C6.66667 8.15917 8.15917 6.66667 10 6.66667C11.8408 6.66667 13.3333 8.15917 13.3333 10C13.3333 11.8408 11.8408 13.3333 10 13.3333ZM15.3383 4.6625C15.3383 5.32583 14.8025 5.86167 14.1392 5.86167C13.4758 5.86167 12.94 5.32583 12.94 4.6625C12.94 3.99917 13.4758 3.46333 14.1392 3.46333C14.8025 3.46333 15.3383 3.99917 15.3383 4.6625Z" fill="#697077"/>                  
</svg>