<svg width="20" height="20" viewBox="0 0 20 20" fill="none">
  <path
    d="M6.29 18.251C13.837 18.251 17.965 12.071 17.965 6.741C17.965 6.541 17.965 6.341 17.953 6.141C18.756 5.542 19.449 4.811 20 3.97C19.252 4.339 18.457 4.584 17.644 4.697C18.5 4.194 19.141 3.399 19.448 2.467C18.642 2.937 17.761 3.271 16.842 3.449C15.288 1.75 12.689 1.566 10.96 3.084C9.779 4.123 9.313 5.739 9.766 7.221C6.55 7.041 3.476 5.453 1.392 2.813C0.303 4.722 0.86 7.119 2.663 8.292C2.01 8.27 1.371 8.092 0.8 7.772C0.8 7.792 0.8 7.812 0.8 7.832C0.801 9.782 2.178 11.462 4.092 11.892C3.488 12.059 2.854 12.072 2.244 11.928C2.777 13.593 4.318 14.749 6.073 14.786C4.62 15.937 2.825 16.557 0.977 16.554C0.651 16.553 0.325 16.532 0 16.49C1.877 17.708 4.06 18.348 6.29 18.346"
    fill="#697077"
  />
</svg>